<?xml version="1.0" ?>
<!-- Uploaded to: SVG Repo, www.svgrepo.com, Generator: SVG Repo Mixer Tools -->
<svg width="800px" height="800px" viewBox="0 0 512 512" version="1.1" xml:space="preserve" xmlns="http://www.w3.org/2000/svg" xmlns:xlink="http://www.w3.org/1999/xlink">
<style type="text/css">
	.st0{display:none;}
	.st1{fill:#474747;}
</style>
<g class="st0" id="Layer_1"/>
<g id="Layer_2">
<g>
<path class="st1" d="M415.08,424.18c1.57-9.15,6.32-42.75,0.4-86.86c-0.01-0.09-0.02-0.19-0.04-0.28    c-0.15-1.11-0.3-2.21-0.46-3.34c-3.16-21.67-8.49-42.56-15.89-62.41c-0.04-0.12-0.09-0.23-0.13-0.35    c-3.14-8.38-6.64-16.58-10.51-24.57c-5.44-11.21-11.62-22.01-18.49-32.38c-0.2-0.35-0.42-0.69-0.67-1    c-13.19-19.73-28.94-37.86-47.08-54.19c-1.26-10.48-3.32-17.47-3.42-17.79c-1.11-3.7-5-5.8-8.7-4.69c-3.7,1.1-5.81,5-4.71,8.7    c0.02,0.07,2.15,7.33,3.2,17.88c0.38,3.83,0.63,8.11,0.58,12.67c-0.08,7.6-0.96,15.95-3.36,24.21c-1.92-4.43-4.34-9.34-7.3-14.27    c-0.72-1.21-1.47-2.41-2.26-3.62c-6.06-9.23-13-16.46-20.62-21.5c-3.2-2.11-7.49-1.27-9.65,1.9    c-8.83,12.97-12.6,28.84-14.19,40.92c-14.72-23.48-14.65-52.39-14.64-52.73c0.03-2.74-1.53-5.24-4-6.41    c-2.47-1.17-5.4-0.8-7.5,0.96c-12.43,10.42-20.76,32.49-25.06,46.64c-16.82-24.15-9.45-55.78-9.36-56.12    c0.52-2.09,0.04-4.3-1.29-5.99c-1.33-1.69-3.36-2.68-5.51-2.68c-10.38,0-20.03,4.13-27.51,8.66    c10.43-30.11,44.73-34.18,46.4-34.36c2.75-0.28,5.08-2.16,5.94-4.79c0.86-2.63,0.09-5.52-1.96-7.37l-7.33-6.61    c17.79-3.2,32.27-0.5,41.94,2.74c2.3,0.77,4.84,0.29,6.7-1.26c1.86-1.55,2.79-3.97,2.45-6.37c-1.1-7.64-2.69-14.19-4.75-19.62    c10.13,1.16,24.97,5.34,34.95,19.07c2.06,2.83,5.89,3.71,8.97,2.05c9.85-5.28,20.63-8.52,32.17-9.67l-5.23,8.4    c-1.46,2.35-1.41,5.34,0.15,7.63c1.55,2.29,4.3,3.45,7.03,2.96c0.12-0.02,12.03-2.09,25.77,1.35c12.2,3.05,21.68,9.39,28.32,18.9    c-8.44-2.31-18.86-3.61-28.86-0.75c-2.06,0.59-3.74,2.1-4.55,4.09c-0.81,1.99-0.66,4.25,0.4,6.11    c0.13,0.23,12.81,22.92,8.75,47.49c-0.63,3.81,1.95,7.42,5.76,8.05c3.82,0.62,7.42-1.95,8.05-5.76c3.21-19.41-2-37.29-6.14-47.6    c13.59,0.03,27.05,7.53,27.21,7.62c2.51,1.42,5.63,1.15,7.86-0.67c2.23-1.82,3.13-4.82,2.25-7.57    c-9.24-28.81-29.92-39.55-45.65-43.48c-6.32-1.58-12.31-2.2-17.35-2.35l5.07-8.14c1.33-2.13,1.41-4.8,0.23-7.01    c-1.19-2.21-3.46-3.62-5.97-3.69c-16.78-0.47-32.44,2.6-46.65,9.16c-21.4-23.97-53.83-20.49-55.29-20.32    c-2.57,0.3-4.77,2-5.71,4.41s-0.47,5.15,1.22,7.11c2.38,2.77,4.45,7.45,6.06,13.6c-13.38-2.69-31.12-3.28-51.71,3.25    c-2.39,0.76-4.19,2.74-4.73,5.19s0.29,5,2.15,6.68l7.11,6.42c-4.81,1.54-10.4,3.78-16.04,7.04    c-14.04,8.11-30.97,24.13-31.93,54.38c-0.09,2.89,1.6,5.54,4.27,6.67c2.66,1.13,5.74,0.5,7.76-1.57    c3.45-3.55,13.2-11.63,24.02-14.76c-1.66,15.82-1.18,47.04,23.27,69.07c1.85,1.67,4.45,2.23,6.82,1.47    c2.37-0.76,4.16-2.73,4.7-5.16c1.7-7.72,6.72-25.38,13.99-38.69c2.69,16.44,9.72,40.42,28.08,57.71c1.32,1.25,3.05,1.9,4.8,1.9    c0.98,0,1.96-0.2,2.88-0.62c2.58-1.17,4.21-3.78,4.11-6.62c-0.01-0.27-0.69-24.9,9.09-44.53c3.82,3.5,7.43,7.82,10.78,12.91    c9.67,14.73,13.78,30.85,13.82,31c0.68,2.75,2.96,4.82,5.77,5.24c2.81,0.42,5.59-0.9,7.04-3.34c0.47-0.8,0.93-1.6,1.37-2.4    c0.13-0.23,0.25-0.46,0.37-0.7c0.33-0.62,0.65-1.24,0.96-1.87c0.11-0.21,0.21-0.42,0.32-0.63c0.39-0.81,0.77-1.62,1.14-2.43    c0.06-0.14,0.12-0.29,0.19-0.43c0.3-0.68,0.59-1.37,0.87-2.06c0.1-0.24,0.2-0.49,0.29-0.73c0.26-0.67,0.52-1.34,0.77-2.01    c0.06-0.16,0.12-0.33,0.18-0.49c0.3-0.82,0.58-1.65,0.84-2.48c0.07-0.2,0.13-0.41,0.19-0.61c0.2-0.65,0.4-1.3,0.59-1.95    c0.07-0.24,0.14-0.48,0.21-0.72c0.22-0.78,0.43-1.57,0.63-2.35c0.01-0.05,0.03-0.09,0.04-0.14c0.21-0.83,0.4-1.67,0.59-2.5    c0.05-0.23,0.1-0.46,0.15-0.68c0.14-0.64,0.27-1.28,0.39-1.93c0.04-0.21,0.08-0.43,0.12-0.64c0.15-0.82,0.3-1.65,0.43-2.47    c0.02-0.1,0.03-0.2,0.05-0.3c0.11-0.73,0.22-1.45,0.32-2.17c0.03-0.23,0.06-0.46,0.09-0.69c0.08-0.66,0.16-1.31,0.23-1.96    c0.02-0.17,0.04-0.34,0.06-0.51c0.08-0.8,0.16-1.6,0.23-2.39c0.02-0.18,0.03-0.36,0.04-0.54c0.05-0.63,0.09-1.25,0.13-1.88    c0.01-0.23,0.03-0.46,0.04-0.68c0.04-0.69,0.07-1.37,0.1-2.05c0-0.08,0.01-0.16,0.01-0.23c13.21,13.14,24.3,26.8,33.59,40.56    c-0.68,5.73-3.98,21.83-20.03,32.71c-3.2,2.17-4.04,6.52-1.87,9.72c1.35,2,3.56,3.07,5.8,3.07c1.35,0,2.72-0.39,3.92-1.21    c12.29-8.33,18.84-19,22.34-28c7.13,12.39,12.91,24.73,17.61,36.74c-5.97,7.31-22.94,26.39-47.22,39.57    c-3.4,1.84-4.66,6.09-2.81,9.49c1.27,2.34,3.67,3.66,6.16,3.66c1.13,0,2.27-0.27,3.33-0.85c21.21-11.51,37.05-26.8,45.98-36.69    c5.52,16.91,8.97,32.85,11.08,46.93c-4.6,2.57-13.84,7.04-27.99,10.81c-3.74,1-5.96,4.83-4.96,8.57c0.83,3.13,3.67,5.2,6.76,5.2    c0.6,0,1.2-0.08,1.81-0.24c11.58-3.09,20.27-6.64,26.22-9.52c2.23,22.31,1.67,41.36,0.6,54.6c-6.99-10.35-14.58-18.83-22.7-25.32    c-17.3-13.82-36.5-18.33-57.08-13.42c-5.89,1.41-11.67,2.5-17.3,3.29c13.99-39.06,17.07-80.71,9.13-124.01    c-0.7-3.8-4.35-6.33-8.15-5.62c-3.8,0.7-6.32,4.35-5.62,8.15c7.91,43.1,4.26,84.42-10.83,122.88c-29.59,1.16-49.15-7.18-65-13.94    c-7.52-3.21-14.02-5.98-20.36-7.17c-14.87-2.77-22.27,7.41-28.21,15.59c-6.2,8.54-12.06,16.6-26.13,18.58    c-3.31,0.46-6.66,1.18-9.96,2.13c-3.72,1.07-5.86,4.94-4.8,8.66c1.07,3.72,4.94,5.86,8.66,4.8c2.68-0.77,5.39-1.35,8.05-1.72    c19.95-2.81,28.94-15.18,35.5-24.22c6.15-8.47,8.62-11.12,14.32-10.05c4.82,0.9,10.66,3.39,17.42,6.28    c17.04,7.28,40.4,17.24,75.79,14.81c9.79-0.67,20.13-2.29,30.72-4.82c36.26-8.65,60.62,22.16,74.67,49.55    c5.17,10.07,8.86,19.55,11.14,26.08H96.87c0.72-10.09,4.37-20.02,10.73-29.05c2.23-3.16,1.47-7.53-1.69-9.75    c-3.16-2.23-7.53-1.47-9.75,1.69c-9.58,13.6-14.19,28.99-13.31,44.51c0.21,3.71,3.28,6.61,6.99,6.61h332.43    c2.18,0,4.23-1.01,5.56-2.75c1.32-1.73,1.77-3.98,1.2-6.08C428.83,458.98,424.46,442.99,415.08,424.18z"/>
<path class="st1" d="M114.18,407.09c0.26,0.38,0.55,0.74,0.87,1.06c1.31,1.31,3.11,2.05,4.95,2.05c0.46,0,0.92-0.04,1.37-0.13    c0.44-0.09,0.88-0.23,1.31-0.4c0.42-0.18,0.83-0.4,1.21-0.65c0.38-0.25,0.74-0.55,1.06-0.87c0.32-0.32,0.62-0.68,0.87-1.06    s0.47-0.79,0.64-1.21c0.18-0.42,0.31-0.86,0.4-1.31c0.1-0.45,0.14-0.91,0.14-1.37c0-1.84-0.75-3.65-2.05-4.95    c-0.32-0.32-0.68-0.61-1.06-0.87c-0.38-0.25-0.79-0.47-1.21-0.64c-0.42-0.18-0.87-0.31-1.31-0.4c-0.9-0.18-1.83-0.18-2.74,0    c-0.44,0.09-0.88,0.22-1.31,0.4c-0.42,0.17-0.83,0.39-1.21,0.64c-0.38,0.26-0.74,0.55-1.06,0.87c-1.3,1.3-2.05,3.11-2.05,4.95    c0,0.46,0.05,0.92,0.14,1.37c0.09,0.45,0.22,0.89,0.4,1.31C113.71,406.3,113.93,406.71,114.18,407.09z"/>
</g>
</g>
</svg>